<svg xmlns="http://www.w3.org/2000/svg" width="3840" height="366"><path d="M1979,295L1918,500L2139,407Z" fill="#7d7d7d" stroke="#7d7d7d" stroke-width="1.51"/><path d="M1918,500L2197,440L2139,407Z" fill="#767676" stroke="#767676" stroke-width="1.51"/><path d="M2139,407L2358,281L1979,295Z" fill="#808080" stroke="#808080" stroke-width="1.51"/><path d="M1918,500L2177,772L2197,440Z" fill="#676767" stroke="#676767" stroke-width="1.51"/><path d="M2197,440L2358,281L2139,407Z" fill="#797979" stroke="#797979" stroke-width="1.51"/><path d="M2521,318L2358,281L2197,440Z" fill="#787878" stroke="#787878" stroke-width="1.51"/><path d="M1910,769L2177,772L1918,500Z" fill="#595959" stroke="#595959" stroke-width="1.51"/><path d="M1979,295L1726,143L1918,500Z" fill="#8a8a8a" stroke="#8a8a8a" stroke-width="1.51"/><path d="M1918,500L1588,780L1910,769Z" fill="#5e5e5e" stroke="#5e5e5e" stroke-width="1.51"/><path d="M2036,-5L1726,143L1979,295Z" fill="#9a9a9a" stroke="#9a9a9a" stroke-width="1.51"/><path d="M2358,281L2036,-5L1979,295Z" fill="#8f8f8f" stroke="#8f8f8f" stroke-width="1.51"/><path d="M2177,772L2313,766L2197,440Z" fill="#565656" stroke="#565656" stroke-width="1.51"/><path d="M2036,-5L1888,-78L1726,143Z" fill="#aaaaaa" stroke="#aaaaaa" stroke-width="1.51"/><path d="M2358,281L2226,-48L2036,-5Z" fill="#9a9a9a" stroke="#9a9a9a" stroke-width="1.51"/><path d="M2036,-5L2026,-363L1888,-78Z" fill="#b4b4b4" stroke="#b4b4b4" stroke-width="1.51"/><path d="M2358,281L2543,235L2226,-48Z" fill="#8b8b8b" stroke="#8b8b8b" stroke-width="1.51"/><path d="M2313,766L2521,318L2197,440Z" fill="#686868" stroke="#686868" stroke-width="1.51"/><path d="M1726,143L1481,505L1918,500Z" fill="#888888" stroke="#888888" stroke-width="1.51"/><path d="M1726,143L1360,413L1481,505Z" fill="#909090" stroke="#909090" stroke-width="1.51"/><path d="M1888,-78L1596,58L1726,143Z" fill="#acacac" stroke="#acacac" stroke-width="1.51"/><path d="M1910,769L2611,829L2177,772Z" fill="#484848" stroke="#484848" stroke-width="1.51"/><path d="M1481,505L1588,780L1918,500Z" fill="#6f6f6f" stroke="#6f6f6f" stroke-width="1.51"/><path d="M2521,318L2543,235L2358,281Z" fill="#7c7c7c" stroke="#7c7c7c" stroke-width="1.51"/><path d="M1596,58L1360,413L1726,143Z" fill="#9f9f9f" stroke="#9f9f9f" stroke-width="1.51"/><path d="M1481,505L1379,718L1588,780Z" fill="#6a6a6a" stroke="#6a6a6a" stroke-width="1.51"/><path d="M1360,413L1379,718L1481,505Z" fill="#7f7f7f" stroke="#7f7f7f" stroke-width="1.51"/><path d="M2226,-48L2254,-267L2036,-5Z" fill="#ababab" stroke="#ababab" stroke-width="1.51"/><path d="M1500,-230L1424,-50L1596,58Z" fill="#bebebe" stroke="#bebebe" stroke-width="1.51"/><path d="M2559,-175L2254,-267L2226,-48Z" fill="#aaaaaa" stroke="#aaaaaa" stroke-width="1.51"/><path d="M2313,766L2611,829L2521,318Z" fill="#525252" stroke="#525252" stroke-width="1.51"/><path d="M2521,318L2984,509L2543,235Z" fill="#6e6e6e" stroke="#6e6e6e" stroke-width="1.51"/><path d="M2177,772L2611,829L2313,766Z" fill="#444444" stroke="#444444" stroke-width="1.51"/><path d="M1588,780L2611,829L1910,769Z" fill="#4c4c4c" stroke="#4c4c4c" stroke-width="1.51"/><path d="M1596,58L1211,203L1360,413Z" fill="#a2a2a2" stroke="#a2a2a2" stroke-width="1.51"/><path d="M1500,-230L1596,58L1888,-78Z" fill="#b9b9b9" stroke="#b9b9b9" stroke-width="1.51"/><path d="M2254,-267L2026,-363L2036,-5Z" fill="#b5b5b5" stroke="#b5b5b5" stroke-width="1.51"/><path d="M2254,-267L2540,-438L2026,-363Z" fill="#b8b8b8" stroke="#b8b8b8" stroke-width="1.51"/><path d="M2543,235L2559,-175L2226,-48Z" fill="#9b9b9b" stroke="#9b9b9b" stroke-width="1.51"/><path d="M2892,-64L2559,-175L2543,235Z" fill="#949494" stroke="#949494" stroke-width="1.51"/><path d="M1731,-482L1500,-230L1888,-78Z" fill="#c5c5c5" stroke="#c5c5c5" stroke-width="1.51"/><path d="M1360,413L1009,625L1379,718Z" fill="#7d7d7d" stroke="#7d7d7d" stroke-width="1.51"/><path d="M1424,-50L1211,203L1596,58Z" fill="#b3b3b3" stroke="#b3b3b3" stroke-width="1.51"/><path d="M1116,-145L1211,203L1424,-50Z" fill="#bfbfbf" stroke="#bfbfbf" stroke-width="1.51"/><path d="M1500,-230L1320,-221L1424,-50Z" fill="#c8c8c8" stroke="#c8c8c8" stroke-width="1.51"/><path d="M1731,-482L1320,-221L1500,-230Z" fill="#cfcfcf" stroke="#cfcfcf" stroke-width="1.51"/><path d="M2540,-438L1731,-482L2026,-363Z" fill="#c1c1c1" stroke="#c1c1c1" stroke-width="1.51"/><path d="M2026,-363L1731,-482L1888,-78Z" fill="#c2c2c2" stroke="#c2c2c2" stroke-width="1.51"/><path d="M2611,829L2984,509L2521,318Z" fill="#595959" stroke="#595959" stroke-width="1.51"/><path d="M2984,509L2921,49L2543,235Z" fill="#747474" stroke="#747474" stroke-width="1.51"/><path d="M2921,49L2892,-64L2543,235Z" fill="#898989" stroke="#898989" stroke-width="1.51"/><path d="M2559,-175L2540,-438L2254,-267Z" fill="#b0b0b0" stroke="#b0b0b0" stroke-width="1.51"/><path d="M2906,-300L2540,-438L2559,-175Z" fill="#aaaaaa" stroke="#aaaaaa" stroke-width="1.51"/><path d="M2611,829L2967,764L2984,509Z" fill="#414141" stroke="#414141" stroke-width="1.51"/><path d="M1379,718L763,774L1588,780Z" fill="#666666" stroke="#666666" stroke-width="1.51"/><path d="M919,462L1009,625L1360,413Z" fill="#8c8c8c" stroke="#8c8c8c" stroke-width="1.51"/><path d="M919,462L1360,413L1211,203Z" fill="#999999" stroke="#999999" stroke-width="1.51"/><path d="M1320,-221L1116,-145L1424,-50Z" fill="#cacaca" stroke="#cacaca" stroke-width="1.51"/><path d="M1049,-451L1116,-145L1320,-221Z" fill="#d6d6d6" stroke="#d6d6d6" stroke-width="1.51"/><path d="M3138,377L3063,178L2984,509Z" fill="#646464" stroke="#646464" stroke-width="1.51"/><path d="M2984,509L3063,178L2921,49Z" fill="#717171" stroke="#717171" stroke-width="1.51"/><path d="M2921,49L3196,-115L2892,-64Z" fill="#8e8e8e" stroke="#8e8e8e" stroke-width="1.51"/><path d="M2967,764L3040,784L2984,509Z" fill="#3e3e3e" stroke="#3e3e3e" stroke-width="1.51"/><path d="M2611,829L3040,784L2967,764Z" fill="#373737" stroke="#373737" stroke-width="1.51"/><path d="M859,233L919,462L1211,203Z" fill="#a4a4a4" stroke="#a4a4a4" stroke-width="1.51"/><path d="M3264,386L3138,377L3366,653Z" fill="#515151" stroke="#515151" stroke-width="1.51"/><path d="M3196,-115L2921,49L3063,178Z" fill="#858585" stroke="#858585" stroke-width="1.51"/><path d="M3196,-115L2906,-300L2892,-64Z" fill="#979797" stroke="#979797" stroke-width="1.51"/><path d="M2892,-64L2906,-300L2559,-175Z" fill="#9f9f9f" stroke="#9f9f9f" stroke-width="1.51"/><path d="M862,-55L859,233L1211,203Z" fill="#b8b8b8" stroke="#b8b8b8" stroke-width="1.51"/><path d="M1116,-145L862,-55L1211,203Z" fill="#c4c4c4" stroke="#c4c4c4" stroke-width="1.51"/><path d="M746,-338L862,-55L1116,-145Z" fill="#d6d6d6" stroke="#d6d6d6" stroke-width="1.51"/><path d="M3138,377L3264,386L3063,178Z" fill="#656565" stroke="#656565" stroke-width="1.51"/><path d="M3366,653L3138,377L2984,509Z" fill="#515151" stroke="#515151" stroke-width="1.51"/><path d="M3411,66L3196,-115L3063,178Z" fill="#7e7e7e" stroke="#7e7e7e" stroke-width="1.51"/><path d="M1731,-482L1049,-451L1320,-221Z" fill="#d8d8d8" stroke="#d8d8d8" stroke-width="1.51"/><path d="M919,462L763,774L1009,625Z" fill="#7f7f7f" stroke="#7f7f7f" stroke-width="1.51"/><path d="M1009,625L763,774L1379,718Z" fill="#707070" stroke="#707070" stroke-width="1.51"/><path d="M1588,780L-401,851L2611,829Z" fill="#5f5f5f" stroke="#5f5f5f" stroke-width="1.51"/><path d="M655,403L763,774L919,462Z" fill="#8d8d8d" stroke="#8d8d8d" stroke-width="1.51"/><path d="M655,403L919,462L859,233Z" fill="#a1a1a1" stroke="#a1a1a1" stroke-width="1.51"/><path d="M2906,-300L3116,-373L2540,-438Z" fill="#a7a7a7" stroke="#a7a7a7" stroke-width="1.51"/><path d="M3196,-115L3116,-373L2906,-300Z" fill="#9b9b9b" stroke="#9b9b9b" stroke-width="1.51"/><path d="M639,199L655,403L859,233Z" fill="#acacac" stroke="#acacac" stroke-width="1.51"/><path d="M3040,784L3366,653L2984,509Z" fill="#404040" stroke="#404040" stroke-width="1.51"/><path d="M3264,386L3411,66L3063,178Z" fill="#6b6b6b" stroke="#6b6b6b" stroke-width="1.51"/><path d="M862,-55L639,199L859,233Z" fill="#bcbcbc" stroke="#bcbcbc" stroke-width="1.51"/><path d="M633,-72L639,199L862,-55Z" fill="#cacaca" stroke="#cacaca" stroke-width="1.51"/><path d="M3196,-115L3370,-134L3116,-373Z" fill="#919191" stroke="#919191" stroke-width="1.51"/><path d="M3603,145L3411,66L3264,386Z" fill="#656565" stroke="#656565" stroke-width="1.51"/><path d="M746,-338L633,-72L862,-55Z" fill="#d8d8d8" stroke="#d8d8d8" stroke-width="1.51"/><path d="M3411,66L3370,-134L3196,-115Z" fill="#838383" stroke="#838383" stroke-width="1.51"/><path d="M1049,-451L746,-338L1116,-145Z" fill="#dedede" stroke="#dedede" stroke-width="1.51"/><path d="M387,530L655,403L359,302Z" fill="#a2a2a2" stroke="#a2a2a2" stroke-width="1.51"/><path d="M387,530L536,741L655,403Z" fill="#909090" stroke="#909090" stroke-width="1.51"/><path d="M655,403L536,741L763,774Z" fill="#818181" stroke="#818181" stroke-width="1.51"/><path d="M3411,66L3573,-187L3370,-134Z" fill="#7f7f7f" stroke="#7f7f7f" stroke-width="1.51"/><path d="M3633,509L3603,145L3264,386Z" fill="#545454" stroke="#545454" stroke-width="1.51"/><path d="M3366,653L3633,509L3264,386Z" fill="#474747" stroke="#474747" stroke-width="1.51"/><path d="M359,302L655,403L639,199Z" fill="#adadad" stroke="#adadad" stroke-width="1.51"/><path d="M274,150L359,302L639,199Z" fill="#b9b9b9" stroke="#b9b9b9" stroke-width="1.51"/><path d="M419,-48L639,199L633,-72Z" fill="#cccccc" stroke="#cccccc" stroke-width="1.51"/><path d="M351,-234L419,-48L633,-72Z" fill="#dadada" stroke="#dadada" stroke-width="1.51"/><path d="M3603,145L3573,-187L3411,66Z" fill="#757575" stroke="#757575" stroke-width="1.51"/><path d="M3370,-134L3521,-314L3116,-373Z" fill="#919191" stroke="#919191" stroke-width="1.51"/><path d="M3573,-187L3521,-314L3370,-134Z" fill="#878787" stroke="#878787" stroke-width="1.51"/><path d="M387,530L293,689L536,741Z" fill="#838383" stroke="#838383" stroke-width="1.51"/><path d="M61,511L293,689L387,530Z" fill="#929292" stroke="#929292" stroke-width="1.51"/><path d="M359,302L61,511L387,530Z" fill="#a2a2a2" stroke="#a2a2a2" stroke-width="1.51"/><path d="M419,-48L274,150L639,199Z" fill="#c6c6c6" stroke="#c6c6c6" stroke-width="1.51"/><path d="M3366,653L3764,627L3633,509Z" fill="#363636" stroke="#363636" stroke-width="1.51"/><path d="M3633,509L3824,82L3603,145Z" fill="#565656" stroke="#565656" stroke-width="1.51"/><path d="M3853,-354L3615,-324L3573,-187Z" fill="#838383" stroke="#838383" stroke-width="1.51"/><path d="M3961,710L3764,627L3366,653Z" fill="#292929" stroke="#292929" stroke-width="1.51"/><path d="M3573,-187L3615,-324L3521,-314Z" fill="#888888" stroke="#888888" stroke-width="1.51"/><path d="M3521,-314L3615,-324L3116,-373Z" fill="#919191" stroke="#919191" stroke-width="1.51"/><path d="M3116,-373L3853,-354L2540,-438Z" fill="#9e9e9e" stroke="#9e9e9e" stroke-width="1.51"/><path d="M3824,82L3573,-187L3603,145Z" fill="#6f6f6f" stroke="#6f6f6f" stroke-width="1.51"/><path d="M419,-48L251,-189L274,150Z" fill="#d6d6d6" stroke="#d6d6d6" stroke-width="1.51"/><path d="M746,-338L351,-234L633,-72Z" fill="#dfdfdf" stroke="#dfdfdf" stroke-width="1.51"/><path d="M181,-304L351,-234L746,-338Z" fill="#e8e8e8" stroke="#e8e8e8" stroke-width="1.51"/><path d="M3968,491L3824,82L3633,509Z" fill="#474747" stroke="#474747" stroke-width="1.51"/><path d="M351,-234L251,-189L419,-48Z" fill="#e0e0e0" stroke="#e0e0e0" stroke-width="1.51"/><path d="M30,193L61,511L359,302Z" fill="#b0b0b0" stroke="#b0b0b0" stroke-width="1.51"/><path d="M30,193L359,302L274,150Z" fill="#bcbcbc" stroke="#bcbcbc" stroke-width="1.51"/><path d="M3764,627L3968,491L3633,509Z" fill="#363636" stroke="#363636" stroke-width="1.51"/><path d="M-35,-119L30,193L274,150Z" fill="#cfcfcf" stroke="#cfcfcf" stroke-width="1.51"/><path d="M351,-234L181,-304L251,-189Z" fill="#e7e7e7" stroke="#e7e7e7" stroke-width="1.51"/><path d="M1049,-451L181,-304L746,-338Z" fill="#e7e7e7" stroke="#e7e7e7" stroke-width="1.51"/><path d="M3764,627L3961,710L3968,491Z" fill="#2b2b2b" stroke="#2b2b2b" stroke-width="1.51"/><path d="M3040,784L3961,710L3366,653Z" fill="#2c2c2c" stroke="#2c2c2c" stroke-width="1.51"/><path d="M4206,815L3961,710L3040,784Z" fill="#1d1d1d" stroke="#1d1d1d" stroke-width="1.51"/><path d="M3824,82L3853,-354L3573,-187Z" fill="#787878" stroke="#787878" stroke-width="1.51"/><path d="M3615,-324L3853,-354L3116,-373Z" fill="#8d8d8d" stroke="#8d8d8d" stroke-width="1.51"/><path d="M4043,-4L3853,-354L3824,82Z" fill="#6f6f6f" stroke="#6f6f6f" stroke-width="1.51"/><path d="M-35,-119L274,150L251,-189Z" fill="#dbdbdb" stroke="#dbdbdb" stroke-width="1.51"/><path d="M61,511L1,611L293,689Z" fill="#909090" stroke="#909090" stroke-width="1.51"/><path d="M-29,476L1,611L61,511Z" fill="#9c9c9c" stroke="#9c9c9c" stroke-width="1.51"/><path d="M30,193L-29,476L61,511Z" fill="#acacac" stroke="#acacac" stroke-width="1.51"/><path d="M4188,322L3824,82L3968,491Z" fill="#484848" stroke="#484848" stroke-width="1.51"/><path d="M4188,322L4043,-4L3824,82Z" fill="#575757" stroke="#575757" stroke-width="1.51"/><path d="M30,193L-263,177L-29,476Z" fill="#b9b9b9" stroke="#b9b9b9" stroke-width="1.51"/><path d="M181,-304L-35,-119L251,-189Z" fill="#e7e7e7" stroke="#e7e7e7" stroke-width="1.51"/><path d="M4206,815L4188,322L3968,491Z" fill="#2d2d2d" stroke="#2d2d2d" stroke-width="1.51"/><path d="M4320,119L4187,-30L4043,-4Z" fill="#5d5d5d" stroke="#5d5d5d" stroke-width="1.51"/><path d="M4043,-4L4229,-322L3853,-354Z" fill="#747474" stroke="#747474" stroke-width="1.51"/><path d="M181,-304L-77,-353L-35,-119Z" fill="#ececec" stroke="#ececec" stroke-width="1.51"/><path d="M-35,-119L-263,177L30,193Z" fill="#d0d0d0" stroke="#d0d0d0" stroke-width="1.51"/><path d="M1049,-451L-77,-353L181,-304Z" fill="#ececec" stroke="#ececec" stroke-width="1.51"/><path d="M3961,710L4206,815L3968,491Z" fill="#1f1f1f" stroke="#1f1f1f" stroke-width="1.51"/><path d="M4188,322L4320,119L4043,-4Z" fill="#515151" stroke="#515151" stroke-width="1.51"/><path d="M2611,829L4206,815L3040,784Z" fill="#2a2a2a" stroke="#2a2a2a" stroke-width="1.51"/><path d="M-290,-104L-263,177L-35,-119Z" fill="#dcdcdc" stroke="#dcdcdc" stroke-width="1.51"/><path d="M-29,476L-430,374L1,611Z" fill="#a3a3a3" stroke="#a3a3a3" stroke-width="1.51"/><path d="M4206,815L4320,119L4188,322Z" fill="#363636" stroke="#363636" stroke-width="1.51"/><path d="M4320,119L4229,-322L4187,-30Z" fill="#636363" stroke="#636363" stroke-width="1.51"/><path d="M4187,-30L4229,-322L4043,-4Z" fill="#6a6a6a" stroke="#6a6a6a" stroke-width="1.51"/><path d="M-251,-317L-290,-104L-35,-119Z" fill="#eaeaea" stroke="#eaeaea" stroke-width="1.51"/><path d="M-77,-353L-251,-317L-35,-119Z" fill="#efefef" stroke="#efefef" stroke-width="1.51"/><path d="M-251,-317L-430,374L-290,-104Z" fill="#dedede" stroke="#dedede" stroke-width="1.51"/><path d="M-290,-104L-430,374L-263,177Z" fill="#cccccc" stroke="#cccccc" stroke-width="1.51"/><path d="M-263,177L-430,374L-29,476Z" fill="#b5b5b5" stroke="#b5b5b5" stroke-width="1.51"/><path d="M-430,374L-401,851L1,611Z" fill="#929292" stroke="#929292" stroke-width="1.51"/><path d="M1,611L-401,851L293,689Z" fill="#818181" stroke="#818181" stroke-width="1.51"/><path d="M293,689L-401,851L536,741Z" fill="#7a7a7a" stroke="#7a7a7a" stroke-width="1.51"/><path d="M536,741L-401,851L763,774Z" fill="#757575" stroke="#757575" stroke-width="1.51"/><path d="M763,774L-401,851L1588,780Z" fill="#6d6d6d" stroke="#6d6d6d" stroke-width="1.51"/></svg>