<svg xmlns="http://www.w3.org/2000/svg" width="3840" height="770"><path d="M2120,490L2189,453L2041,232Z" fill="#8f8f8f" stroke="#8f8f8f" stroke-width="1.51"/><path d="M2189,453L2336,133L2041,232Z" fill="#999999" stroke="#999999" stroke-width="1.51"/><path d="M2336,133L2160,26L2041,232Z" fill="#a5a5a5" stroke="#a5a5a5" stroke-width="1.51"/><path d="M2041,232L1805,628L2120,490Z" fill="#8e8e8e" stroke="#8e8e8e" stroke-width="1.51"/><path d="M1715,117L1805,628L2041,232Z" fill="#9d9d9d" stroke="#9d9d9d" stroke-width="1.51"/><path d="M2189,453L2509,520L2336,133Z" fill="#8b8b8b" stroke="#8b8b8b" stroke-width="1.51"/><path d="M2120,490L2291,721L2189,453Z" fill="#7f7f7f" stroke="#7f7f7f" stroke-width="1.51"/><path d="M1988,783L2291,721L2120,490Z" fill="#777777" stroke="#777777" stroke-width="1.51"/><path d="M1805,628L1988,783L2120,490Z" fill="#7f7f7f" stroke="#7f7f7f" stroke-width="1.51"/><path d="M2291,721L2509,520L2189,453Z" fill="#7a7a7a" stroke="#7a7a7a" stroke-width="1.51"/><path d="M1737,34L1715,117L2041,232Z" fill="#b0b0b0" stroke="#b0b0b0" stroke-width="1.51"/><path d="M2160,26L1737,34L2041,232Z" fill="#adadad" stroke="#adadad" stroke-width="1.51"/><path d="M2336,133L2294,-67L2160,26Z" fill="#a9a9a9" stroke="#a9a9a9" stroke-width="1.51"/><path d="M2558,39L2294,-67L2336,133Z" fill="#a5a5a5" stroke="#a5a5a5" stroke-width="1.51"/><path d="M2178,-230L1737,34L2160,26Z" fill="#b6b6b6" stroke="#b6b6b6" stroke-width="1.51"/><path d="M1805,628L1830,843L1988,783Z" fill="#787878" stroke="#787878" stroke-width="1.51"/><path d="M1988,783L2063,982L2291,721Z" fill="#696969" stroke="#696969" stroke-width="1.51"/><path d="M1552,618L1830,843L1805,628Z" fill="#818181" stroke="#818181" stroke-width="1.51"/><path d="M2689,157L2558,39L2336,133Z" fill="#9c9c9c" stroke="#9c9c9c" stroke-width="1.51"/><path d="M2294,-67L2178,-230L2160,26Z" fill="#b2b2b2" stroke="#b2b2b2" stroke-width="1.51"/><path d="M2445,-246L2178,-230L2294,-67Z" fill="#b4b4b4" stroke="#b4b4b4" stroke-width="1.51"/><path d="M1715,117L1552,618L1805,628Z" fill="#979797" stroke="#979797" stroke-width="1.51"/><path d="M1420,289L1552,618L1715,117Z" fill="#a5a5a5" stroke="#a5a5a5" stroke-width="1.51"/><path d="M1830,843L2063,982L1988,783Z" fill="#686868" stroke="#686868" stroke-width="1.51"/><path d="M2291,721L2480,956L2509,520Z" fill="#6a6a6a" stroke="#6a6a6a" stroke-width="1.51"/><path d="M2509,520L2689,157L2336,133Z" fill="#909090" stroke="#909090" stroke-width="1.51"/><path d="M1448,69L1420,289L1715,117Z" fill="#b7b7b7" stroke="#b7b7b7" stroke-width="1.51"/><path d="M2558,39L2445,-246L2294,-67Z" fill="#ababab" stroke="#ababab" stroke-width="1.51"/><path d="M2528,-325L2445,-246L2558,39Z" fill="#aeaeae" stroke="#aeaeae" stroke-width="1.51"/><path d="M1639,-235L1448,69L1737,34Z" fill="#c3c3c3" stroke="#c3c3c3" stroke-width="1.51"/><path d="M1737,34L1448,69L1715,117Z" fill="#bababa" stroke="#bababa" stroke-width="1.51"/><path d="M2271,1087L2480,956L2291,721Z" fill="#575757" stroke="#575757" stroke-width="1.51"/><path d="M2509,520L2843,307L2689,157Z" fill="#858585" stroke="#858585" stroke-width="1.51"/><path d="M1448,69L1372,299L1420,289Z" fill="#b6b6b6" stroke="#b6b6b6" stroke-width="1.51"/><path d="M1420,289L1372,299L1552,618Z" fill="#a3a3a3" stroke="#a3a3a3" stroke-width="1.51"/><path d="M1752,-376L1639,-235L1737,34Z" fill="#c7c7c7" stroke="#c7c7c7" stroke-width="1.51"/><path d="M1752,-376L1737,34L2178,-230Z" fill="#c2c2c2" stroke="#c2c2c2" stroke-width="1.51"/><path d="M2063,982L2271,1087L2291,721Z" fill="#5a5a5a" stroke="#5a5a5a" stroke-width="1.51"/><path d="M2885,-298L2528,-325L2558,39Z" fill="#aaaaaa" stroke="#aaaaaa" stroke-width="1.51"/><path d="M2844,658L2843,307L2509,520Z" fill="#757575" stroke="#757575" stroke-width="1.51"/><path d="M2063,982L2229,1224L2271,1087Z" fill="#4a4a4a" stroke="#4a4a4a" stroke-width="1.51"/><path d="M1830,843L1817,1079L2063,982Z" fill="#5e5e5e" stroke="#5e5e5e" stroke-width="1.51"/><path d="M1507,1103L1817,1079L1830,843Z" fill="#5f5f5f" stroke="#5f5f5f" stroke-width="1.51"/><path d="M1448,69L1380,30L1372,299Z" fill="#bdbdbd" stroke="#bdbdbd" stroke-width="1.51"/><path d="M1639,-235L1380,30L1448,69Z" fill="#c7c7c7" stroke="#c7c7c7" stroke-width="1.51"/><path d="M2480,956L2699,870L2509,520Z" fill="#626262" stroke="#626262" stroke-width="1.51"/><path d="M2862,1151L2699,870L2480,956Z" fill="#464646" stroke="#464646" stroke-width="1.51"/><path d="M2528,-325L1752,-376L2178,-230Z" fill="#bebebe" stroke="#bebebe" stroke-width="1.51"/><path d="M962,-163L1059,126L1380,30Z" fill="#cecece" stroke="#cecece" stroke-width="1.51"/><path d="M2699,870L2844,658L2509,520Z" fill="#666666" stroke="#666666" stroke-width="1.51"/><path d="M2445,-246L2528,-325L2178,-230Z" fill="#b5b5b5" stroke="#b5b5b5" stroke-width="1.51"/><path d="M2885,14L2558,39L2689,157Z" fill="#999999" stroke="#999999" stroke-width="1.51"/><path d="M1552,618L1390,776L1830,843Z" fill="#818181" stroke="#818181" stroke-width="1.51"/><path d="M1219,511L1390,776L1552,618Z" fill="#919191" stroke="#919191" stroke-width="1.51"/><path d="M2843,307L2885,14L2689,157Z" fill="#909090" stroke="#909090" stroke-width="1.51"/><path d="M3219,184L2885,14L2843,307Z" fill="#8b8b8b" stroke="#8b8b8b" stroke-width="1.51"/><path d="M1817,1079L1845,1192L2063,982Z" fill="#535353" stroke="#535353" stroke-width="1.51"/><path d="M1507,1103L1845,1192L1817,1079Z" fill="#545454" stroke="#545454" stroke-width="1.51"/><path d="M2271,1087L2624,1365L2480,956Z" fill="#404040" stroke="#404040" stroke-width="1.51"/><path d="M1845,1192L2229,1224L2063,982Z" fill="#4b4b4b" stroke="#4b4b4b" stroke-width="1.51"/><path d="M1372,299L1219,511L1552,618Z" fill="#9f9f9f" stroke="#9f9f9f" stroke-width="1.51"/><path d="M1059,126L1219,511L1372,299Z" fill="#b3b3b3" stroke="#b3b3b3" stroke-width="1.51"/><path d="M2844,658L2976,455L2843,307Z" fill="#727272" stroke="#727272" stroke-width="1.51"/><path d="M1390,776L1507,1103L1830,843Z" fill="#6f6f6f" stroke="#6f6f6f" stroke-width="1.51"/><path d="M1230,869L1507,1103L1390,776Z" fill="#747474" stroke="#747474" stroke-width="1.51"/><path d="M1219,511L1230,869L1390,776Z" fill="#8c8c8c" stroke="#8c8c8c" stroke-width="1.51"/><path d="M3039,-280L2885,-298L2885,14Z" fill="#a1a1a1" stroke="#a1a1a1" stroke-width="1.51"/><path d="M2885,14L2885,-298L2558,39Z" fill="#a0a0a0" stroke="#a0a0a0" stroke-width="1.51"/><path d="M1845,1192L1965,1389L2229,1224Z" fill="#474747" stroke="#474747" stroke-width="1.51"/><path d="M1465,1243L1965,1389L1845,1192Z" fill="#4d4d4d" stroke="#4d4d4d" stroke-width="1.51"/><path d="M1380,30L1059,126L1372,299Z" fill="#c0c0c0" stroke="#c0c0c0" stroke-width="1.51"/><path d="M1219,511L1050,847L1230,869Z" fill="#8d8d8d" stroke="#8d8d8d" stroke-width="1.51"/><path d="M1189,-327L1380,30L1639,-235Z" fill="#d1d1d1" stroke="#d1d1d1" stroke-width="1.51"/><path d="M2699,870L3043,833L2844,658Z" fill="#595959" stroke="#595959" stroke-width="1.51"/><path d="M2844,658L3137,646L2976,455Z" fill="#666666" stroke="#666666" stroke-width="1.51"/><path d="M2976,455L3219,184L2843,307Z" fill="#7c7c7c" stroke="#7c7c7c" stroke-width="1.51"/><path d="M2862,1151L3043,833L2699,870Z" fill="#464646" stroke="#464646" stroke-width="1.51"/><path d="M2862,1151L2480,956L2624,1365Z" fill="#393939" stroke="#393939" stroke-width="1.51"/><path d="M3043,833L3137,646L2844,658Z" fill="#5b5b5b" stroke="#5b5b5b" stroke-width="1.51"/><path d="M1507,1103L1465,1243L1845,1192Z" fill="#535353" stroke="#535353" stroke-width="1.51"/><path d="M1332,1281L1465,1243L1507,1103Z" fill="#575757" stroke="#575757" stroke-width="1.51"/><path d="M2624,1365L2271,1087L2229,1224Z" fill="#3e3e3e" stroke="#3e3e3e" stroke-width="1.51"/><path d="M1752,-376L1189,-327L1639,-235Z" fill="#d2d2d2" stroke="#d2d2d2" stroke-width="1.51"/><path d="M3137,646L3219,184L2976,455Z" fill="#707070" stroke="#707070" stroke-width="1.51"/><path d="M1965,1389L2624,1365L2229,1224Z" fill="#404040" stroke="#404040" stroke-width="1.51"/><path d="M3234,-69L3039,-280L2885,14Z" fill="#9a9a9a" stroke="#9a9a9a" stroke-width="1.51"/><path d="M944,572L1050,847L1219,511Z" fill="#989898" stroke="#989898" stroke-width="1.51"/><path d="M1173,1169L1332,1281L1507,1103Z" fill="#5a5a5a" stroke="#5a5a5a" stroke-width="1.51"/><path d="M1059,126L944,572L1219,511Z" fill="#adadad" stroke="#adadad" stroke-width="1.51"/><path d="M1173,1169L1507,1103L1230,869Z" fill="#676767" stroke="#676767" stroke-width="1.51"/><path d="M1465,1243L1332,1281L1965,1389Z" fill="#525252" stroke="#525252" stroke-width="1.51"/><path d="M3219,184L3234,-69L2885,14Z" fill="#8f8f8f" stroke="#8f8f8f" stroke-width="1.51"/><path d="M925,930L1173,1169L1050,847Z" fill="#737373" stroke="#737373" stroke-width="1.51"/><path d="M1050,847L1173,1169L1230,869Z" fill="#737373" stroke="#737373" stroke-width="1.51"/><path d="M2624,1365L2924,1270L2862,1151Z" fill="#333333" stroke="#333333" stroke-width="1.51"/><path d="M2862,1151L3146,1123L3043,833Z" fill="#3a3a3a" stroke="#3a3a3a" stroke-width="1.51"/><path d="M3471,830L3399,643L3137,646Z" fill="#505050" stroke="#505050" stroke-width="1.51"/><path d="M1059,126L783,384L944,572Z" fill="#b5b5b5" stroke="#b5b5b5" stroke-width="1.51"/><path d="M1189,-327L962,-163L1380,30Z" fill="#d5d5d5" stroke="#d5d5d5" stroke-width="1.51"/><path d="M962,-163L886,18L1059,126Z" fill="#d2d2d2" stroke="#d2d2d2" stroke-width="1.51"/><path d="M944,572L925,930L1050,847Z" fill="#8e8e8e" stroke="#8e8e8e" stroke-width="1.51"/><path d="M822,1018L925,930L673,808Z" fill="#7f7f7f" stroke="#7f7f7f" stroke-width="1.51"/><path d="M2924,1270L3146,1123L2862,1151Z" fill="#2f2f2f" stroke="#2f2f2f" stroke-width="1.51"/><path d="M3137,646L3454,345L3219,184Z" fill="#6d6d6d" stroke="#6d6d6d" stroke-width="1.51"/><path d="M886,18L783,384L1059,126Z" fill="#c7c7c7" stroke="#c7c7c7" stroke-width="1.51"/><path d="M3471,830L3137,646L3043,833Z" fill="#505050" stroke="#505050" stroke-width="1.51"/><path d="M3219,184L3417,102L3234,-69Z" fill="#868686" stroke="#868686" stroke-width="1.51"/><path d="M3454,345L3417,102L3219,184Z" fill="#797979" stroke="#797979" stroke-width="1.51"/><path d="M3234,-69L3436,-304L3039,-280Z" fill="#999999" stroke="#999999" stroke-width="1.51"/><path d="M3399,643L3454,345L3137,646Z" fill="#5d5d5d" stroke="#5d5d5d" stroke-width="1.51"/><path d="M1173,1169L1082,1333L1332,1281Z" fill="#5c5c5c" stroke="#5c5c5c" stroke-width="1.51"/><path d="M1332,1281L1082,1333L1965,1389Z" fill="#565656" stroke="#565656" stroke-width="1.51"/><path d="M842,1323L1082,1333L1173,1169Z" fill="#606060" stroke="#606060" stroke-width="1.51"/><path d="M886,18L386,202L783,384Z" fill="#c9c9c9" stroke="#c9c9c9" stroke-width="1.51"/><path d="M962,-163L740,-113L886,18Z" fill="#d9d9d9" stroke="#d9d9d9" stroke-width="1.51"/><path d="M650,-277L740,-113L962,-163Z" fill="#e1e1e1" stroke="#e1e1e1" stroke-width="1.51"/><path d="M673,808L944,572L579,460Z" fill="#a2a2a2" stroke="#a2a2a2" stroke-width="1.51"/><path d="M673,808L925,930L944,572Z" fill="#919191" stroke="#919191" stroke-width="1.51"/><path d="M925,930L822,1018L1173,1169Z" fill="#6f6f6f" stroke="#6f6f6f" stroke-width="1.51"/><path d="M3146,1123L3311,1136L3043,833Z" fill="#363636" stroke="#363636" stroke-width="1.51"/><path d="M3399,643L3694,488L3454,345Z" fill="#5b5b5b" stroke="#5b5b5b" stroke-width="1.51"/><path d="M3235,1339L3311,1136L3146,1123Z" fill="#272727" stroke="#272727" stroke-width="1.51"/><path d="M3311,1136L3471,830L3043,833Z" fill="#3c3c3c" stroke="#3c3c3c" stroke-width="1.51"/><path d="M3471,830L3542,687L3399,643Z" fill="#4a4a4a" stroke="#4a4a4a" stroke-width="1.51"/><path d="M3564,-143L3234,-69L3417,102Z" fill="#888888" stroke="#888888" stroke-width="1.51"/><path d="M579,460L944,572L783,384Z" fill="#aeaeae" stroke="#aeaeae" stroke-width="1.51"/><path d="M3564,-143L3417,102L3733,122Z" fill="#7d7d7d" stroke="#7d7d7d" stroke-width="1.51"/><path d="M3564,-143L3436,-304L3234,-69Z" fill="#8e8e8e" stroke="#8e8e8e" stroke-width="1.51"/><path d="M3039,-280L3561,-361L2885,-298Z" fill="#9f9f9f" stroke="#9f9f9f" stroke-width="1.51"/><path d="M2885,-298L3561,-361L2528,-325Z" fill="#a5a5a5" stroke="#a5a5a5" stroke-width="1.51"/><path d="M2528,-325L3561,-361L1752,-376Z" fill="#b1b1b1" stroke="#b1b1b1" stroke-width="1.51"/><path d="M3311,1136L3779,936L3471,830Z" fill="#2f2f2f" stroke="#2f2f2f" stroke-width="1.51"/><path d="M3815,560L3694,488L3542,687Z" fill="#4d4d4d" stroke="#4d4d4d" stroke-width="1.51"/><path d="M2924,1270L3235,1339L3146,1123Z" fill="#2b2b2b" stroke="#2b2b2b" stroke-width="1.51"/><path d="M2624,1365L3235,1339L2924,1270Z" fill="#303030" stroke="#303030" stroke-width="1.51"/><path d="M386,202L579,460L783,384Z" fill="#bdbdbd" stroke="#bdbdbd" stroke-width="1.51"/><path d="M3733,122L3417,102L3454,345Z" fill="#747474" stroke="#747474" stroke-width="1.51"/><path d="M740,-113L386,202L886,18Z" fill="#d5d5d5" stroke="#d5d5d5" stroke-width="1.51"/><path d="M1189,-327L650,-277L962,-163Z" fill="#e1e1e1" stroke="#e1e1e1" stroke-width="1.51"/><path d="M822,1018L842,1323L1173,1169Z" fill="#646464" stroke="#646464" stroke-width="1.51"/><path d="M1082,1333L321,1376L1965,1389Z" fill="#5e5e5e" stroke="#5e5e5e" stroke-width="1.51"/><path d="M325,1088L842,1323L822,1018Z" fill="#6c6c6c" stroke="#6c6c6c" stroke-width="1.51"/><path d="M3542,687L3694,488L3399,643Z" fill="#505050" stroke="#505050" stroke-width="1.51"/><path d="M3815,560L3542,687L3779,936Z" fill="#414141" stroke="#414141" stroke-width="1.51"/><path d="M673,808L325,1088L822,1018Z" fill="#7d7d7d" stroke="#7d7d7d" stroke-width="1.51"/><path d="M579,460L512,692L673,808Z" fill="#a1a1a1" stroke="#a1a1a1" stroke-width="1.51"/><path d="M386,202L495,572L579,460Z" fill="#b8b8b8" stroke="#b8b8b8" stroke-width="1.51"/><path d="M495,572L512,692L579,460Z" fill="#a9a9a9" stroke="#a9a9a9" stroke-width="1.51"/><path d="M3564,-143L3561,-361L3436,-304Z" fill="#8e8e8e" stroke="#8e8e8e" stroke-width="1.51"/><path d="M3436,-304L3561,-361L3039,-280Z" fill="#979797" stroke="#979797" stroke-width="1.51"/><path d="M3900,-224L3561,-361L3564,-143Z" fill="#868686" stroke="#868686" stroke-width="1.51"/><path d="M3694,488L3733,122L3454,345Z" fill="#656565" stroke="#656565" stroke-width="1.51"/><path d="M370,-2L386,202L740,-113Z" fill="#d9d9d9" stroke="#d9d9d9" stroke-width="1.51"/><path d="M267,1078L325,1088L119,867Z" fill="#7f7f7f" stroke="#7f7f7f" stroke-width="1.51"/><path d="M3235,1339L3459,1399L3311,1136Z" fill="#242424" stroke="#242424" stroke-width="1.51"/><path d="M2624,1365L3459,1399L3235,1339Z" fill="#2b2b2b" stroke="#2b2b2b" stroke-width="1.51"/><path d="M1965,1389L3459,1399L2624,1365Z" fill="#363636" stroke="#363636" stroke-width="1.51"/><path d="M3694,488L3906,280L3733,122Z" fill="#616161" stroke="#616161" stroke-width="1.51"/><path d="M3779,936L3542,687L3471,830Z" fill="#3d3d3d" stroke="#3d3d3d" stroke-width="1.51"/><path d="M650,-277L370,-2L740,-113Z" fill="#e2e2e2" stroke="#e2e2e2" stroke-width="1.51"/><path d="M3569,1398L3779,936L3311,1136Z" fill="#1f1f1f" stroke="#1f1f1f" stroke-width="1.51"/><path d="M3459,1399L3569,1398L3311,1136Z" fill="#202020" stroke="#202020" stroke-width="1.51"/><path d="M3733,122L3900,-224L3564,-143Z" fill="#7c7c7c" stroke="#7c7c7c" stroke-width="1.51"/><path d="M3815,560L3906,280L3694,488Z" fill="#535353" stroke="#535353" stroke-width="1.51"/><path d="M4142,552L3906,280L3815,560Z" fill="#4e4e4e" stroke="#4e4e4e" stroke-width="1.51"/><path d="M650,-277L364,-273L370,-2Z" fill="#e7e7e7" stroke="#e7e7e7" stroke-width="1.51"/><path d="M293,-319L364,-273L650,-277Z" fill="#ececec" stroke="#ececec" stroke-width="1.51"/><path d="M293,-319L650,-277L1189,-327Z" fill="#e8e8e8" stroke="#e8e8e8" stroke-width="1.51"/><path d="M3966,7L3900,-224L3733,122Z" fill="#757575" stroke="#757575" stroke-width="1.51"/><path d="M3906,280L3966,7L3733,122Z" fill="#6b6b6b" stroke="#6b6b6b" stroke-width="1.51"/><path d="M4123,-73L3966,7L4323,166Z" fill="#6a6a6a" stroke="#6a6a6a" stroke-width="1.51"/><path d="M150,289L386,202L83,102Z" fill="#d3d3d3" stroke="#d3d3d3" stroke-width="1.51"/><path d="M150,289L495,572L386,202Z" fill="#c1c1c1" stroke="#c1c1c1" stroke-width="1.51"/><path d="M90,638L512,692L495,572Z" fill="#a6a6a6" stroke="#a6a6a6" stroke-width="1.51"/><path d="M512,692L325,1088L673,808Z" fill="#8d8d8d" stroke="#8d8d8d" stroke-width="1.51"/><path d="M364,-273L293,-319L370,-2Z" fill="#eaeaea" stroke="#eaeaea" stroke-width="1.51"/><path d="M1752,-376L293,-319L1189,-327Z" fill="#e0e0e0" stroke="#e0e0e0" stroke-width="1.51"/><path d="M83,102L386,202L370,-2Z" fill="#d8d8d8" stroke="#d8d8d8" stroke-width="1.51"/><path d="M325,1088L321,1376L842,1323Z" fill="#6a6a6a" stroke="#6a6a6a" stroke-width="1.51"/><path d="M119,867L325,1088L512,692Z" fill="#8d8d8d" stroke="#8d8d8d" stroke-width="1.51"/><path d="M3569,1398L3834,1359L3779,936Z" fill="#161616" stroke="#161616" stroke-width="1.51"/><path d="M3779,936L4070,872L3815,560Z" fill="#363636" stroke="#363636" stroke-width="1.51"/><path d="M150,289L90,638L495,572Z" fill="#b5b5b5" stroke="#b5b5b5" stroke-width="1.51"/><path d="M-88,570L-18,685L90,638Z" fill="#adadad" stroke="#adadad" stroke-width="1.51"/><path d="M-29,6L83,102L30,-277Z" fill="#e7e7e7" stroke="#e7e7e7" stroke-width="1.51"/><path d="M90,638L119,867L512,692Z" fill="#a0a0a0" stroke="#a0a0a0" stroke-width="1.51"/><path d="M4085,1053L4070,872L3779,936Z" fill="#232323" stroke="#232323" stroke-width="1.51"/><path d="M842,1323L321,1376L1082,1333Z" fill="#666666" stroke="#666666" stroke-width="1.51"/><path d="M208,1342L321,1376L325,1088Z" fill="#6d6d6d" stroke="#6d6d6d" stroke-width="1.51"/><path d="M208,1342L325,1088L267,1078Z" fill="#707070" stroke="#707070" stroke-width="1.51"/><path d="M3834,1359L3967,1184L3779,936Z" fill="#151515" stroke="#151515" stroke-width="1.51"/><path d="M4070,872L4142,552L3815,560Z" fill="#3d3d3d" stroke="#3d3d3d" stroke-width="1.51"/><path d="M3966,7L4123,-73L3900,-224Z" fill="#757575" stroke="#757575" stroke-width="1.51"/><path d="M4323,166L3966,7L3906,280Z" fill="#646464" stroke="#646464" stroke-width="1.51"/><path d="M-29,6L1,141L83,102Z" fill="#dedede" stroke="#dedede" stroke-width="1.51"/><path d="M83,102L1,141L150,289Z" fill="#d7d7d7" stroke="#d7d7d7" stroke-width="1.51"/><path d="M90,638L-18,685L119,867Z" fill="#a3a3a3" stroke="#a3a3a3" stroke-width="1.51"/><path d="M4123,-73L4117,-218L3900,-224Z" fill="#777777" stroke="#777777" stroke-width="1.51"/><path d="M3900,-224L4117,-218L3561,-361Z" fill="#818181" stroke="#818181" stroke-width="1.51"/><path d="M4195,1381L4085,1053L3967,1184Z" fill="#0b0b0b" stroke="#0b0b0b" stroke-width="1.51"/><path d="M3967,1184L4085,1053L3779,936Z" fill="#1b1b1b" stroke="#1b1b1b" stroke-width="1.51"/><path d="M4070,872L4196,673L4142,552Z" fill="#373737" stroke="#373737" stroke-width="1.51"/><path d="M4085,1053L4196,673L4070,872Z" fill="#282828" stroke="#282828" stroke-width="1.51"/><path d="M4142,552L4323,166L3906,280Z" fill="#535353" stroke="#535353" stroke-width="1.51"/><path d="M4123,-73L4323,166L4117,-218Z" fill="#6c6c6c" stroke="#6c6c6c" stroke-width="1.51"/><path d="M5,1024L208,1342L267,1078Z" fill="#737373" stroke="#737373" stroke-width="1.51"/><path d="M119,867L5,1024L267,1078Z" fill="#838383" stroke="#838383" stroke-width="1.51"/><path d="M-88,570L90,638L150,289Z" fill="#b8b8b8" stroke="#b8b8b8" stroke-width="1.51"/><path d="M1,141L-88,570L150,289Z" fill="#c8c8c8" stroke="#c8c8c8" stroke-width="1.51"/><path d="M30,-277L83,102L370,-2Z" fill="#e6e6e6" stroke="#e6e6e6" stroke-width="1.51"/><path d="M293,-319L30,-277L370,-2Z" fill="#ececec" stroke="#ececec" stroke-width="1.51"/><path d="M-18,685L5,1024L119,867Z" fill="#959595" stroke="#959595" stroke-width="1.51"/><path d="M-263,245L-88,570L1,141Z" fill="#cbcbcb" stroke="#cbcbcb" stroke-width="1.51"/><path d="M-346,1059L5,1024L-401,919Z" fill="#868686" stroke="#868686" stroke-width="1.51"/><path d="M4196,673L4323,166L4142,552Z" fill="#464646" stroke="#464646" stroke-width="1.51"/><path d="M4196,673L4195,1381L4323,166Z" fill="#313131" stroke="#313131" stroke-width="1.51"/><path d="M4085,1053L4195,1381L4196,673Z" fill="#171717" stroke="#171717" stroke-width="1.51"/><path d="M3834,1359L4195,1381L3967,1184Z" fill="#0e0e0e" stroke="#0e0e0e" stroke-width="1.51"/><path d="M3569,1398L4195,1381L3834,1359Z" fill="#121212" stroke="#121212" stroke-width="1.51"/><path d="M-29,6L-263,245L1,141Z" fill="#dcdcdc" stroke="#dcdcdc" stroke-width="1.51"/><path d="M-303,1293L-207,1385L5,1024Z" fill="#737373" stroke="#737373" stroke-width="1.51"/><path d="M-290,-36L-263,245L-29,6Z" fill="#e1e1e1" stroke="#e1e1e1" stroke-width="1.51"/><path d="M-251,-249L-290,-36L-29,6Z" fill="#ececec" stroke="#ececec" stroke-width="1.51"/><path d="M30,-277L-251,-249L-29,6Z" fill="#f0f0f0" stroke="#f0f0f0" stroke-width="1.51"/><path d="M293,-319L-251,-249L30,-277Z" fill="#f3f3f3" stroke="#f3f3f3" stroke-width="1.51"/><path d="M-430,442L-88,570L-263,245Z" fill="#c3c3c3" stroke="#c3c3c3" stroke-width="1.51"/><path d="M5,1024L-18,685L-401,919Z" fill="#959595" stroke="#959595" stroke-width="1.51"/><path d="M5,1024L-207,1385L208,1342Z" fill="#727272" stroke="#727272" stroke-width="1.51"/><path d="M208,1342L-207,1385L321,1376Z" fill="#707070" stroke="#707070" stroke-width="1.51"/><path d="M321,1376L-207,1385L1965,1389Z" fill="#676767" stroke="#676767" stroke-width="1.51"/><path d="M1965,1389L-207,1385L3459,1399Z" fill="#4e4e4e" stroke="#4e4e4e" stroke-width="1.51"/><path d="M-251,-249L-430,442L-290,-36Z" fill="#e5e5e5" stroke="#e5e5e5" stroke-width="1.51"/><path d="M-290,-36L-430,442L-263,245Z" fill="#d8d8d8" stroke="#d8d8d8" stroke-width="1.51"/><path d="M-401,919L-18,685L-88,570Z" fill="#a6a6a6" stroke="#a6a6a6" stroke-width="1.51"/><path d="M-430,442L-401,919L-88,570Z" fill="#afafaf" stroke="#afafaf" stroke-width="1.51"/><path d="M-401,919L-303,1293L-346,1059Z" fill="#7e7e7e" stroke="#7e7e7e" stroke-width="1.51"/><path d="M-346,1059L-303,1293L5,1024Z" fill="#7a7a7a" stroke="#7a7a7a" stroke-width="1.51"/></svg>