<?xml version="1.0" encoding="iso-8859-1"?>
<!-- Generator: Adobe Illustrator 19.0.0, SVG Export Plug-In . SVG Version: 6.00 Build 0)  -->
<svg version="1.1" id="Capa_1" xmlns="http://www.w3.org/2000/svg" xmlns:xlink="http://www.w3.org/1999/xlink" x="0px" y="0px"
	 viewBox="0 0 512 512" style="enable-background:new 0 0 512 512;" xml:space="preserve">
<path style="fill:#F7F2F4;" d="M256,391c-52.601,0-111.02-21.026-173.635-62.494c-45.992-30.458-76.629-60.571-77.91-61.838
	C1.604,263.85,0,260.008,0,256s1.604-7.85,4.455-10.667c1.281-1.267,31.918-31.38,77.91-61.838C144.98,142.026,203.399,121,256,121
	s111.02,21.026,173.635,62.494c45.992,30.458,76.629,60.571,77.91,61.838C510.396,248.15,512,251.992,512,256
	s-1.604,7.85-4.455,10.667c-1.281,1.267-31.918,31.38-77.91,61.838C367.02,369.974,308.601,391,256,391z"/>
<path style="fill:#DFDAE0;" d="M507.545,245.333c-1.281-1.267-31.918-31.38-77.91-61.838C367.02,142.026,308.601,121,256,121v270
	c52.601,0,111.02-21.026,173.635-62.494c45.992-30.458,76.629-60.571,77.91-61.838C510.396,263.85,512,260.008,512,256
	S510.396,248.15,507.545,245.333z"/>
<path style="fill:#6D737F;" d="M256,331c-74.439,0-135-60.561-135-135c0-10.82,1.284-21.571,3.817-31.955
	c1.043-4.278,3.914-7.882,7.851-9.855C176.605,132.167,218.101,121,256,121c37.9,0,79.395,11.167,123.331,33.19
	c3.937,1.973,6.807,5.576,7.851,9.854C389.716,174.426,391,185.178,391,196C391,270.439,330.439,331,256,331z"/>
<g>
	<path style="fill:#5E5F69;" d="M387.182,164.044c-1.044-4.277-3.914-7.88-7.851-9.854C335.395,132.167,293.9,121,256,121v210
		c74.439,0,135-60.561,135-135C391,185.178,389.716,174.426,387.182,164.044z"/>
	<path style="fill:#5E5F69;" d="M256,271c-41.355,0-75-33.645-75-75s33.645-75,75-75s75,33.645,75,75S297.355,271,256,271z"/>
</g>
<path style="fill:#504C54;" d="M256,121v150c41.355,0,75-33.645,75-75S297.355,121,256,121z"/>
<g>
</g>
<g>
</g>
<g>
</g>
<g>
</g>
<g>
</g>
<g>
</g>
<g>
</g>
<g>
</g>
<g>
</g>
<g>
</g>
<g>
</g>
<g>
</g>
<g>
</g>
<g>
</g>
<g>
</g>
</svg>
