<?xml version="1.0" encoding="iso-8859-1"?>
<!-- Generator: Adobe Illustrator 19.0.0, SVG Export Plug-In . SVG Version: 6.00 Build 0)  -->
<svg version="1.1" id="Capa_1" xmlns="http://www.w3.org/2000/svg" xmlns:xlink="http://www.w3.org/1999/xlink" x="0px" y="0px"
	 viewBox="0 0 512 512" style="enable-background:new 0 0 512 512;" xml:space="preserve">
<path style="fill:#6D737F;" d="M316,132H196c-8.284,0-15-6.716-15-15V75c0-41.355,33.645-75,75-75s75,33.645,75,75v42
	C331,125.284,324.284,132,316,132z M211,102h90V75c0-24.813-20.187-45-45-45s-45,20.187-45,45V102z"/>
<path style="fill:#5E5F69;" d="M256,0v30c24.813,0,45,20.187,45,45v27h-45v30h60c8.284,0,15-6.716,15-15V75
	C331,33.645,297.355,0,256,0z"/>
<g>
	<path style="fill:#DFDAE0;" d="M106,512c-8.284,0-15-6.716-15-15v-74c0-8.284,6.716-15,15-15s15,6.716,15,15v74
		C121,505.284,114.284,512,106,512z"/>
	<path style="fill:#DFDAE0;" d="M206,512c-19.299,0-35-15.701-35-35v-34c0-19.299,15.701-35,35-35s35,15.701,35,35v34
		C241,496.299,225.299,512,206,512z M206,438c-2.757,0-5,2.243-5,5v34c0,2.757,2.243,5,5,5s5-2.243,5-5v-34
		C211,440.243,208.757,438,206,438z"/>
	<path style="fill:#DFDAE0;" d="M206,377c-8.284,0-15-6.716-15-15v-74c0-8.284,6.716-15,15-15s15,6.716,15,15v74
		C221,370.284,214.284,377,206,377z"/>
	<path style="fill:#DFDAE0;" d="M106,377c-19.299,0-35-15.701-35-35v-34c0-19.299,15.701-35,35-35s35,15.701,35,35v34
		C141,361.299,125.299,377,106,377z M106,303c-2.757,0-5,2.243-5,5v34c0,2.757,2.243,5,5,5s5-2.243,5-5v-34
		C111,305.243,108.757,303,106,303z"/>
</g>
<path style="fill:#FFAC2B;" d="M351,251H161c-8.284,0-15-6.716-15-15V117c0-8.284,6.716-15,15-15h190c8.284,0,15,6.716,15,15v119
	C366,244.284,359.284,251,351,251z"/>
<path style="fill:#FF981E;" d="M351,102h-95v149h95c8.284,0,15-6.716,15-15V117C366,108.716,359.284,102,351,102z"/>
<path style="fill:#FF8512;" d="M281,167c0-8.284-6.716-15-15-15h-20c-8.284,0-15,6.716-15,15c0,6.528,4.178,12.067,10,14.128V187
	c0,8.284,6.716,15,15,15s15-6.716,15-15v-5.872C276.822,179.067,281,173.528,281,167z"/>
<g>
	<path style="fill:#B5BAC4;" d="M306,512c-8.284,0-15-6.716-15-15v-74c0-8.284,6.716-15,15-15s15,6.716,15,15v74
		C321,505.284,314.284,512,306,512z"/>
	<path style="fill:#B5BAC4;" d="M406,512c-19.299,0-35-15.701-35-35v-34c0-19.299,15.701-35,35-35s35,15.701,35,35v34
		C441,496.299,425.299,512,406,512z M406,438c-2.757,0-5,2.243-5,5v34c0,2.757,2.243,5,5,5s5-2.243,5-5v-34
		C411,440.243,408.757,438,406,438z"/>
	<path style="fill:#B5BAC4;" d="M306,377c-8.284,0-15-6.716-15-15v-74c0-8.284,6.716-15,15-15s15,6.716,15,15v74
		C321,370.284,314.284,377,306,377z"/>
	<path style="fill:#B5BAC4;" d="M406,377c-19.299,0-35-15.701-35-35v-34c0-19.299,15.701-35,35-35s35,15.701,35,35v34
		C441,361.299,425.299,377,406,377z M406,303c-2.757,0-5,2.243-5,5v34c0,2.757,2.243,5,5,5s5-2.243,5-5v-34
		C411,305.243,408.757,303,406,303z"/>
</g>
<path style="fill:#FF7105;" d="M266,152h-10v50c8.284,0,15-6.716,15-15v-5.872c5.822-2.061,10-7.6,10-14.128
	C281,158.716,274.284,152,266,152z"/>
<g>
</g>
<g>
</g>
<g>
</g>
<g>
</g>
<g>
</g>
<g>
</g>
<g>
</g>
<g>
</g>
<g>
</g>
<g>
</g>
<g>
</g>
<g>
</g>
<g>
</g>
<g>
</g>
<g>
</g>
</svg>
