<?xml version="1.0" encoding="iso-8859-1"?>
<!-- Generator: Adobe Illustrator 19.0.0, SVG Export Plug-In . SVG Version: 6.00 Build 0)  -->
<svg version="1.1" id="Capa_1" xmlns="http://www.w3.org/2000/svg" xmlns:xlink="http://www.w3.org/1999/xlink" x="0px" y="0px"
	 viewBox="0 0 512 512" style="enable-background:new 0 0 512 512;" xml:space="preserve">
<path style="fill:#F7F2F4;" d="M512,116v280c0,8.28-6.72,15-15,15H15c-8.28,0-15-6.72-15-15V116c0-8.28,6.72-15,15-15h482
	C505.28,101,512,107.72,512,116z"/>
<g>
	<path style="fill:#DFDAE0;" d="M497,101H256v310h241c8.28,0,15-6.72,15-15V116C512,107.72,505.28,101,497,101z"/>
	<path style="fill:#DFDAE0;" d="M512,124.3l-155.85,97.65L512,390.13V396c0,8.28-6.72,15-15,15h-6.55L330.28,238.16l-66.32,41.55
		c-2.43,1.53-5.2,2.29-7.96,2.29s-5.53-0.76-7.96-2.29l-66.32-41.55L21.55,411H15c-8.28,0-15-6.72-15-15v-5.87l155.85-168.18
		L0,124.3V116c0-8.28,6.72-15,15-15h4.31C276.409,262.076,84.402,141.778,256,249.3c2.516-1.577,230.434-144.38,236.69-148.3H497
		c8.28,0,15,6.72,15,15V124.3z"/>
</g>
<path style="fill:#B5BAC4;" d="M512,116c0-8.28-6.72-15-15-15h-4.31C391.054,164.683,262.985,244.923,256,249.3l0,0V282l0,0
	c2.76,0,5.53-0.76,7.96-2.29l66.32-41.55L490.45,411H497c8.28,0,15-6.72,15-15v-5.87L356.15,221.95L512,124.3V116z"/>
<g>
</g>
<g>
</g>
<g>
</g>
<g>
</g>
<g>
</g>
<g>
</g>
<g>
</g>
<g>
</g>
<g>
</g>
<g>
</g>
<g>
</g>
<g>
</g>
<g>
</g>
<g>
</g>
<g>
</g>
</svg>
