<?xml version="1.0" encoding="iso-8859-1"?>
<!-- Generator: Adobe Illustrator 19.0.0, SVG Export Plug-In . SVG Version: 6.00 Build 0)  -->
<svg version="1.1" id="Capa_1" xmlns="http://www.w3.org/2000/svg" xmlns:xlink="http://www.w3.org/1999/xlink" x="0px" y="0px"
	 viewBox="0 0 512 512" style="enable-background:new 0 0 512 512;" xml:space="preserve">
<path style="fill:#FFF35D;" d="M346.12,182H165.88c-6.042,0-11.494-3.625-13.832-9.195C148.035,163.242,146,152.205,146,140
	C146,52.462,245.253,3.533,249.478,1.493c4.12-1.99,8.922-1.99,13.044,0C266.747,3.533,366,52.462,366,140
	c0,12.204-2.035,23.241-6.049,32.805C357.614,178.375,352.162,182,346.12,182z"/>
<path style="fill:#FFDC4C;" d="M262.523,1.493C260.462,0.498,258.231,0,256,0v182h90.12c6.042,0,11.493-3.625,13.831-9.195
	c4.014-9.563,6.049-20.6,6.049-32.805C366,52.462,266.747,3.533,262.523,1.493z"/>
<path style="fill:#FF5757;" d="M266.386,62.829c-2.902-2.785-6.644-4.178-10.386-4.178s-7.484,1.393-10.386,4.178
	C218.498,88.847,196,123.378,196,161.17c0,2.719,0.109,5.186,0.325,7.331c0.771,7.664,7.222,13.499,14.925,13.499H256h44.75
	c7.703,0,14.154-5.835,14.925-13.499c0.216-2.146,0.325-4.612,0.325-7.331C316,123.378,293.502,88.847,266.386,62.829z"/>
<path style="fill:#FF3E3E;" d="M266.386,62.829c-2.902-2.785-6.644-4.178-10.386-4.178V182h44.75
	c7.703,0,14.154-5.835,14.925-13.499c0.216-2.146,0.325-4.612,0.325-7.331C316,123.378,293.502,88.847,266.386,62.829z"/>
<g>
	<path style="fill:#FFF35D;" d="M108,133H66c-8.284,0-15-6.716-15-15s6.716-15,15-15h42c8.284,0,15,6.716,15,15S116.284,133,108,133
		z"/>
	<path style="fill:#FFF35D;" d="M118.687,72.615l-36.373-21c-7.174-4.142-9.632-13.315-5.49-20.49
		c4.142-7.175,13.316-9.636,20.49-5.49l36.373,21c7.174,4.142,9.632,13.315,5.49,20.49
		C135.036,74.297,125.863,76.759,118.687,72.615z"/>
</g>
<path style="fill:#FFAC2B;" d="M497,512H15c-8.284,0-15-6.716-15-15V167c0-8.284,6.716-15,15-15h482c8.284,0,15,6.716,15,15v330
	C512,505.285,505.284,512,497,512z"/>
<g>
	<path style="fill:#FF981E;" d="M497,152H256v360h241c8.284,0,15-6.716,15-15V167C512,158.716,505.284,152,497,152z"/>
	<polygon style="fill:#FF981E;" points="361,152 331,152 331,262 0,262 0,292 151,292 151,372 0,372 0,402 331,402 331,512 361,512 
		361,402 512,402 512,372 181,372 181,292 512,292 512,262 361,262 	"/>
</g>
<g>
	<path style="fill:#FFDC4C;" d="M446,133h-42c-8.284,0-15-6.716-15-15s6.716-15,15-15h42c8.284,0,15,6.716,15,15
		S454.284,133,446,133z"/>
	<path style="fill:#FFDC4C;" d="M372.823,67.125c-4.143-7.175-1.685-16.349,5.49-20.49l36.373-21
		c7.175-4.143,16.348-1.685,20.49,5.49s1.685,16.349-5.49,20.49l-36.373,21C386.14,76.757,376.966,74.3,372.823,67.125z"/>
</g>
<g>
	<polygon style="fill:#FF8512;" points="512,292 512,262 361,262 361,152 331,152 331,262 256,262 256,292 	"/>
	<polygon style="fill:#FF8512;" points="331,402 331,512 361,512 361,402 512,402 512,372 256,372 256,402 	"/>
</g>
<g>
</g>
<g>
</g>
<g>
</g>
<g>
</g>
<g>
</g>
<g>
</g>
<g>
</g>
<g>
</g>
<g>
</g>
<g>
</g>
<g>
</g>
<g>
</g>
<g>
</g>
<g>
</g>
<g>
</g>
</svg>
