<?xml version="1.0" encoding="iso-8859-1"?>
<!-- Generator: Adobe Illustrator 19.0.0, SVG Export Plug-In . SVG Version: 6.00 Build 0)  -->
<svg version="1.1" id="Capa_1" xmlns="http://www.w3.org/2000/svg" xmlns:xlink="http://www.w3.org/1999/xlink" x="0px" y="0px"
	 viewBox="0 0 512 512" style="enable-background:new 0 0 512 512;" xml:space="preserve">
<path style="fill:#B5BAC4;" d="M473.36,194.92c-4.32-1.35-9.07-2.66-14.22-3.91c-15.72-3.84-35.14-7.22-57.24-9.96l-2.05-2.47
	L309.56,69.44c-2.68-3.23-6.58-5.2-10.77-5.42c-4.19-0.22-8.27,1.32-11.27,4.25L255,100.031l-32.52-31.76
	c-3-2.93-7.1-4.47-11.27-4.25c-4.19,0.22-8.09,2.19-10.77,5.42L110.1,178.61l-2.25,2.72c-22.04,2.79-40.89,6.14-56.28,9.98
	c-4.9,1.23-9.45,2.51-13.64,3.83C27.56,198.42,0,207.141,0,228c0,20.53,24.86,33.41,83.13,43.08C129.44,278.77,190.83,283,256,283
	s126.56-4.23,172.87-11.92C487.14,261.41,512,248.53,512,228C512,206.97,483.93,198.22,473.36,194.92z"/>
<path style="fill:#8B9BA8;" d="M473.36,194.92c-4.32-1.35-9.07-2.66-14.22-3.91c-15.72-3.84-35.14-7.22-57.24-9.96l-2.05-2.47
	L309.56,69.44c-2.68-3.23-6.58-5.2-10.77-5.42c-4.19-0.22-8.27,1.32-11.27,4.25L256,99.054V283c65.17,0,126.56-4.23,172.87-11.92
	C487.14,261.41,512,248.53,512,228C512,206.97,483.93,198.221,473.36,194.92z"/>
<path style="fill:#DFDAE0;" d="M459.14,191.01c-64.09,24.18-134.14,36.13-203.97,36.13c-70.15,0-140.09-12.05-203.6-35.83
	c15.39-3.84,34.24-7.19,56.28-9.98l2.25-2.72c92.89,24.76,195.83,25.06,289.75-0.03l2.05,2.47
	C424,183.791,443.42,187.17,459.14,191.01z"/>
<path style="fill:#6D737F;" d="M336,318H176c-35.841,0-65,29.159-65,65s29.159,65,65,65s65-29.159,65-65
	c0-12.881-3.782-24.888-10.271-35h50.542C274.782,358.112,271,370.119,271,383c0,35.841,29.159,65,65,65s65-29.159,65-65
	S371.841,318,336,318z"/>
<path style="fill:#B5BAC4;" d="M401.9,181.051l-2.05-2.47c-46.51,12.425-95.232,18.614-143.85,18.698v29.857
	c69.555-0.094,139.304-12.042,203.14-36.125C443.42,187.17,424,183.79,401.9,181.051z"/>
<path style="fill:#5E5F69;" d="M336,318h-80v30h25.271C274.782,358.112,271,370.119,271,383c0,35.841,29.159,65,65,65
	s65-29.159,65-65S371.841,318,336,318z"/>
<g>
</g>
<g>
</g>
<g>
</g>
<g>
</g>
<g>
</g>
<g>
</g>
<g>
</g>
<g>
</g>
<g>
</g>
<g>
</g>
<g>
</g>
<g>
</g>
<g>
</g>
<g>
</g>
<g>
</g>
</svg>
