<?xml version="1.0" encoding="iso-8859-1"?>
<!-- Generator: Adobe Illustrator 19.0.0, SVG Export Plug-In . SVG Version: 6.00 Build 0)  -->
<svg version="1.1" id="Capa_1" xmlns="http://www.w3.org/2000/svg" xmlns:xlink="http://www.w3.org/1999/xlink" x="0px" y="0px"
	 viewBox="0 0 512 512" style="enable-background:new 0 0 512 512;" xml:space="preserve">
<path style="fill:#6D737F;" d="M396,512H116c-24.813,0-45-20.187-45-45V45c0-24.813,20.187-45,45-45h280c24.813,0,45,20.187,45,45
	v422C441,491.813,420.813,512,396,512z"/>
<path style="fill:#5E5F69;" d="M396,0H256v512h140c24.813,0,45-20.187,45-45V45C441,20.187,420.813,0,396,0z"/>
<path style="fill:#FFF35D;" d="M376,421H136c-8.284,0-15-6.716-15-15V66c0-8.284,6.716-15,15-15h240c8.284,0,15,6.716,15,15v340
	C391,414.284,384.284,421,376,421z"/>
<path style="fill:#5E5F69;" d="M286,481.5h-60c-8.284,0-15-6.716-15-15s6.716-15,15-15h60c8.284,0,15,6.716,15,15
	S294.284,481.5,286,481.5z"/>
<path style="fill:#FFDC4C;" d="M376,51H256v370h120c8.284,0,15-6.716,15-15V66C391,57.716,384.284,51,376,51z"/>
<path style="fill:#504C54;" d="M286,451.5h-30v30h30c8.284,0,15-6.716,15-15S294.284,451.5,286,451.5z"/>
<g>
</g>
<g>
</g>
<g>
</g>
<g>
</g>
<g>
</g>
<g>
</g>
<g>
</g>
<g>
</g>
<g>
</g>
<g>
</g>
<g>
</g>
<g>
</g>
<g>
</g>
<g>
</g>
<g>
</g>
</svg>
