<?xml version="1.0" encoding="iso-8859-1"?>
<!-- Generator: Adobe Illustrator 19.0.0, SVG Export Plug-In . SVG Version: 6.00 Build 0)  -->
<svg version="1.1" id="Capa_1" xmlns="http://www.w3.org/2000/svg" xmlns:xlink="http://www.w3.org/1999/xlink" x="0px" y="0px"
	 viewBox="0 0 512 512" style="enable-background:new 0 0 512 512;" xml:space="preserve">
<path style="fill:#B5BAC4;" d="M304,443c-8.284,0-15-6.716-15-15s6.716-15,15-15l142-0.002c8.284,0,15,6.716,15,15s-6.716,15-15,15
	L304,443z"/>
<g>
	<path style="fill:#DFDAE0;" d="M208,443C207.999,443,208,443,208,443l-142-0.002c-8.284,0-15-6.716-15-15s6.717-15,15-15
		c0.001,0,0,0,0,0L208,413c8.284,0,15,6.716,15,15S216.283,443,208,443z"/>
	<path style="fill:#DFDAE0;" d="M256,390c-8.284,0-15-6.716-15-15V256c0-8.284,6.716-15,15-15s15,6.716,15,15v119
		C271,383.284,264.284,390,256,390z"/>
</g>
<path style="fill:#B5BAC4;" d="M256,241v149c8.284,0,15-6.716,15-15V256C271,247.716,264.284,241,256,241z"/>
<path style="fill:#59C9FF;" d="M421,150H91c-3.979,0-7.794-1.58-10.606-4.394l-25-25C52.58,117.794,51,113.979,51,110V40
	c0-3.979,1.58-7.794,4.394-10.606l25-25C83.206,1.58,87.021,0,91,0h330c3.979,0,7.794,1.58,10.606,4.394l25,25
	C459.42,32.206,461,36.021,461,40v70c0,3.979-1.58,7.794-4.394,10.606l-25,25C428.794,148.42,424.979,150,421,150z"/>
<path style="fill:#4BA9EF;" d="M456.606,29.394l-25-25C428.794,1.58,424.979,0,421,0H256v150h165c3.979,0,7.794-1.58,10.606-4.394
	l25-25C459.42,117.794,461,113.979,461,110V40C461,36.021,459.42,32.206,456.606,29.394z"/>
<path style="fill:#FFF35D;" d="M155,100c-13.785,0-25-11.215-25-25s11.215-25,25-25s25,11.215,25,25S168.785,100,155,100z"/>
<path style="fill:#6D737F;" d="M378,90H228c-8.284,0-15-6.716-15-15s6.716-15,15-15h150c8.284,0,15,6.716,15,15S386.284,90,378,90z"
	/>
<path style="fill:#59C9FF;" d="M421,270H91c-3.979,0-7.794-1.58-10.606-4.394l-25-25C52.58,237.794,51,233.979,51,230v-70
	c0-3.979,1.58-7.794,4.394-10.606l25-25C83.206,121.58,87.021,120,91,120h330c3.979,0,7.794,1.58,10.606,4.394l25,25
	C459.42,152.206,461,156.021,461,160v70c0,3.979-1.58,7.794-4.394,10.606l-25,25C428.794,268.42,424.979,270,421,270z"/>
<path style="fill:#4BA9EF;" d="M456.606,149.394l-25-25C428.794,121.58,424.979,120,421,120H256v150h165
	c3.979,0,7.794-1.58,10.606-4.394l25-25C459.42,237.794,461,233.979,461,230v-70C461,156.021,459.42,152.206,456.606,149.394z"/>
<path style="fill:#FFF35D;" d="M155,220c-13.785,0-25-11.215-25-25s11.215-25,25-25s25,11.215,25,25S168.785,220,155,220z"/>
<path style="fill:#6D737F;" d="M378,210H228c-8.284,0-15-6.716-15-15s6.716-15,15-15h150c8.284,0,15,6.716,15,15
	S386.284,210,378,210z"/>
<path style="fill:#FFAC2B;" d="M256,512c-2.804,0-5.608-0.785-8.068-2.354l-31.63-20.182C201.711,480.153,193,464.253,193,446.929
	v-52.957c0-3.974,1.576-7.784,4.384-10.597l18.935-18.972c2.814-2.819,6.634-4.403,10.617-4.403h58.129
	c3.983,0,7.803,1.584,10.617,4.403l18.935,18.972c2.808,2.813,4.384,6.623,4.384,10.597v52.957c0,17.324-8.711,33.225-23.302,42.535
	l-31.63,20.182C261.608,511.215,258.804,512,256,512z"/>
<g>
	<path style="fill:#5E5F69;" d="M378,60H256v30h122c8.284,0,15-6.716,15-15S386.284,60,378,60z"/>
	<path style="fill:#5E5F69;" d="M378,180H256v30h122c8.284,0,15-6.716,15-15S386.284,180,378,180z"/>
</g>
<path style="fill:#FF981E;" d="M314.616,383.375l-18.935-18.972c-2.814-2.819-6.634-4.403-10.617-4.403H256v152
	c2.804,0,5.608-0.785,8.068-2.354l31.63-20.182C310.289,480.153,319,464.253,319,446.929v-52.957
	C319,389.998,317.424,386.188,314.616,383.375z"/>
<g>
</g>
<g>
</g>
<g>
</g>
<g>
</g>
<g>
</g>
<g>
</g>
<g>
</g>
<g>
</g>
<g>
</g>
<g>
</g>
<g>
</g>
<g>
</g>
<g>
</g>
<g>
</g>
<g>
</g>
</svg>
