<?xml version="1.0" encoding="iso-8859-1"?>
<!-- Generator: Adobe Illustrator 19.0.0, SVG Export Plug-In . SVG Version: 6.00 Build 0)  -->
<svg version="1.1" id="Capa_1" xmlns="http://www.w3.org/2000/svg" xmlns:xlink="http://www.w3.org/1999/xlink" x="0px" y="0px"
	 viewBox="0 0 512 512" style="enable-background:new 0 0 512 512;" xml:space="preserve">
<g>
	<path style="fill:#FFDC4C;" d="M372.673,139.327c-5.858-5.857-5.858-15.355,0-21.213l53.972-53.972
		c5.858-5.858,15.355-5.858,21.213,0c5.858,5.857,5.858,15.355,0,21.213l-53.972,53.972
		C388.029,145.184,378.531,145.187,372.673,139.327z"/>
	<path style="fill:#FFDC4C;" d="M426.645,447.857l-53.972-53.972c-5.858-5.857-5.858-15.355,0-21.213
		c5.857-5.857,15.355-5.857,21.213,0l53.972,53.972c5.858,5.857,5.858,15.355,0,21.213
		C441.999,453.716,432.503,453.715,426.645,447.857z"/>
</g>
<g>
	<path style="fill:#FF981E;" d="M462,100c-27.57,0-50-22.43-50-50s22.43-50,50-50s50,22.43,50,50S489.57,100,462,100z"/>
	<path style="fill:#FF981E;" d="M462,512c-27.57,0-50-22.43-50-50s22.43-50,50-50s50,22.43,50,50S489.57,512,462,512z"/>
</g>
<g>
	<path style="fill:#FFF35D;" d="M118.114,139.327L64.142,85.355c-5.858-5.857-5.858-15.355,0-21.213
		c5.857-5.857,15.355-5.857,21.213,0l53.972,53.972c5.858,5.857,5.858,15.355,0,21.213
		C133.469,145.186,123.972,145.185,118.114,139.327z"/>
	<path style="fill:#FFF35D;" d="M64.142,447.857c-5.858-5.857-5.858-15.355,0-21.213l53.972-53.972
		c5.858-5.858,15.355-5.858,21.213,0c5.858,5.857,5.858,15.355,0,21.213l-53.972,53.972
		C79.498,453.714,70.001,453.717,64.142,447.857z"/>
</g>
<g>
	<path style="fill:#FFAC2B;" d="M50,100C22.43,100,0,77.57,0,50S22.43,0,50,0s50,22.43,50,50S77.57,100,50,100z"/>
	<path style="fill:#FFAC2B;" d="M50,512c-27.57,0-50-22.43-50-50s22.43-50,50-50s50,22.43,50,50S77.57,512,50,512z"/>
	<path style="fill:#FFAC2B;" d="M256,451c-107.523,0-195-87.477-195-195S148.477,61,256,61s195,87.477,195,195S363.523,451,256,451z
		"/>
</g>
<path style="fill:#FF981E;" d="M256,61v390c107.523,0,195-87.477,195-195S363.523,61,256,61z"/>
<path style="fill:#FFF35D;" d="M313,241h-2v-23c0-30.327-24.673-55-55-55s-55,24.673-55,55v23h-2c-8.284,0-15,6.716-15,15v78
	c0,8.284,6.716,15,15,15h114c8.284,0,15-6.716,15-15v-78C328,247.716,321.284,241,313,241z M231,218c0-13.785,11.215-25,25-25
	s25,11.215,25,25v23h-50V218z"/>
<path style="fill:#FFDC4C;" d="M313,241h-2v-23c0-30.327-24.673-55-55-55v30c13.785,0,25,11.215,25,25v23h-25v108h57
	c8.284,0,15-6.716,15-15v-78C328,247.716,321.284,241,313,241z"/>
<g>
</g>
<g>
</g>
<g>
</g>
<g>
</g>
<g>
</g>
<g>
</g>
<g>
</g>
<g>
</g>
<g>
</g>
<g>
</g>
<g>
</g>
<g>
</g>
<g>
</g>
<g>
</g>
<g>
</g>
</svg>
